<?xml version="1.0" encoding="UTF-8" standalone="no"?>
<!-- Created with Inkscape (http://www.inkscape.org/) -->

<svg
   xmlns:osb="http://www.openswatchbook.org/uri/2009/osb"
   xmlns:dc="http://purl.org/dc/elements/1.1/"
   xmlns:cc="http://creativecommons.org/ns#"
   xmlns:rdf="http://www.w3.org/1999/02/22-rdf-syntax-ns#"
   xmlns:svg="http://www.w3.org/2000/svg"
   xmlns="http://www.w3.org/2000/svg"
   xmlns:sodipodi="http://sodipodi.sourceforge.net/DTD/sodipodi-0.dtd"
   xmlns:inkscape="http://www.inkscape.org/namespaces/inkscape"
   sodipodi:docname="media-toc.svg"
   inkscape:version="0.92.3 (2405546, 2018-03-11)"
   id="svg8"
   version="1.1"
   viewBox="0 0 211.66666 211.66667"
   height="800"
   width="800">
  <defs
     id="defs2">
    <linearGradient
       id="linearGradient5978"
       osb:paint="solid">
      <stop
         style="stop-color:#000000;stop-opacity:1;"
         offset="0"
         id="stop5976" />
    </linearGradient>
  </defs>
  <sodipodi:namedview
     inkscape:window-maximized="1"
     inkscape:window-y="27"
     inkscape:window-x="0"
     inkscape:window-height="1016"
     inkscape:window-width="1920"
     showgrid="false"
     inkscape:current-layer="layer3"
     inkscape:document-units="px"
     inkscape:cy="398.63018"
     inkscape:cx="505.26915"
     inkscape:zoom="1.4"
     inkscape:pageshadow="2"
     inkscape:pageopacity="0.0"
     borderopacity="1.0"
     bordercolor="#666666"
     pagecolor="#ffffff"
     id="base"
     inkscape:pagecheckerboard="true"
     units="px" />
  <metadata
     id="metadata5">
    <rdf:RDF>
      <cc:Work
         rdf:about="">
        <dc:format>image/svg+xml</dc:format>
        <dc:type
           rdf:resource="http://purl.org/dc/dcmitype/StillImage" />
        <dc:title />
        <cc:license
           rdf:resource="http://creativecommons.org/licenses/by-sa/4.0/" />
      </cc:Work>
      <cc:License
         rdf:about="http://creativecommons.org/licenses/by-sa/4.0/">
        <cc:permits
           rdf:resource="http://creativecommons.org/ns#Reproduction" />
        <cc:permits
           rdf:resource="http://creativecommons.org/ns#Distribution" />
        <cc:requires
           rdf:resource="http://creativecommons.org/ns#Notice" />
        <cc:requires
           rdf:resource="http://creativecommons.org/ns#Attribution" />
        <cc:permits
           rdf:resource="http://creativecommons.org/ns#DerivativeWorks" />
        <cc:requires
           rdf:resource="http://creativecommons.org/ns#ShareAlike" />
      </cc:License>
    </rdf:RDF>
  </metadata>
  <g
     inkscape:label="background"
     inkscape:groupmode="layer"
     id="layer1"
     style="display:inline"
     transform="translate(0,-85.333317)">
    <path
       style="fill:#3d3d3d;fill-opacity:1;stroke-width:0.26465201"
       clip-path="none"
       d="m -28.613755,139.98553 v 10.18342 h 59.893501 c 3.726355,0 6.726203,2.99986 6.726203,6.72624 v 63.78855 c 0,3.72636 -2.999848,6.72621 -6.726203,6.72621 h -59.893501 v 10.12909 H 228.90025 v -1.90014 h -1.52342 c -0.53659,0 -0.96842,-0.43183 -0.96842,-0.96841 v -4.39922 c 0,-0.53658 0.43183,-0.96841 0.96842,-0.96841 h 1.52342 v -1.89291 h -43.7162 c -3.57829,0 -6.45904,-2.88074 -6.45904,-6.45904 v -64.32288 c 0,-3.57832 2.88075,-6.45908 6.45904,-6.45908 h 43.7162 v -1.84279 h -1.52342 c -0.53659,0 -0.96842,-0.43184 -0.96842,-0.96842 v -4.39924 c 0,-0.53659 0.43183,-0.96842 0.96842,-0.96842 h 1.52342 v -2.00455 z m 27.3916074,2.00455 h 5.0942627 c 0.5365855,0 0.9684164,0.43183 0.9684164,0.96842 v 4.39924 c 0,0.53658 -0.4318309,0.96842 -0.9684164,0.96842 h -5.0942627 c -0.5365853,0 -0.9684163,-0.43184 -0.9684163,-0.96842 v -4.39924 c 0,-0.53659 0.431831,-0.96842 0.9684163,-0.96842 z m 9.5249999,0 h 5.0942637 c 0.536586,0 0.968416,0.43183 0.968416,0.96842 v 4.39924 c 0,0.53658 -0.43183,0.96842 -0.968416,0.96842 H 8.3028523 c -0.5365853,0 -0.9684163,-0.43184 -0.9684163,-0.96842 v -4.39924 c 0,-0.53659 0.431831,-0.96842 0.9684163,-0.96842 z m 9.5250007,0 h 5.094263 c 0.536585,0 0.968416,0.43183 0.968416,0.96842 v 4.39924 c 0,0.53658 -0.431831,0.96842 -0.968416,0.96842 h -5.094263 c -0.536586,0 -0.968416,-0.43184 -0.968416,-0.96842 v -4.39924 c 0,-0.53659 0.43183,-0.96842 0.968416,-0.96842 z m 9.525,0 h 5.094264 c 0.536583,0 0.968415,0.43183 0.968415,0.96842 v 4.39924 c 0,0.53658 -0.431832,0.96842 -0.968415,0.96842 h -5.094264 c -0.536585,0 -0.968416,-0.43184 -0.968416,-0.96842 v -4.39924 c 0,-0.53659 0.431831,-0.96842 0.968416,-0.96842 z m 9.525,0 h 5.094264 c 0.536583,0 0.968414,0.43183 0.968414,0.96842 v 4.39924 c 0,0.53658 -0.431831,0.96842 -0.968414,0.96842 h -5.094264 c -0.536585,0 -0.968417,-0.43184 -0.968417,-0.96842 v -4.39924 c 0,-0.53659 0.431832,-0.96842 0.968417,-0.96842 z m 9.525,0 h 5.094264 c 0.536583,0 0.968414,0.43183 0.968414,0.96842 v 4.39924 c 0,0.53658 -0.431831,0.96842 -0.968414,0.96842 h -5.094264 c -0.536586,0 -0.968417,-0.43184 -0.968417,-0.96842 v -4.39924 c 0,-0.53659 0.431831,-0.96842 0.968417,-0.96842 z m 9.525,0 h 5.093745 c 0.536585,0 0.968933,0.43183 0.968933,0.96842 v 4.39924 c 0,0.53658 -0.432348,0.96842 -0.968933,0.96842 h -5.093745 c -0.536586,0 -0.968933,-0.43184 -0.968933,-0.96842 v -4.39924 c 0,-0.53659 0.432347,-0.96842 0.968933,-0.96842 z m 9.525,0 h 5.093745 c 0.536585,0 0.968933,0.43183 0.968933,0.96842 v 4.39924 c 0,0.53658 -0.432348,0.96842 -0.968933,0.96842 h -5.093745 c -0.536586,0 -0.968934,-0.43184 -0.968934,-0.96842 v -4.39924 c 0,-0.53659 0.432348,-0.96842 0.968934,-0.96842 z m 9.525,0 h 5.093745 c 0.536585,0 0.968417,0.43183 0.968417,0.96842 v 4.39924 c 0,0.53658 -0.431832,0.96842 -0.968417,0.96842 h -5.093745 c -0.536586,0 -0.968934,-0.43184 -0.968934,-0.96842 v -4.39924 c 0,-0.53659 0.432348,-0.96842 0.968934,-0.96842 z m 9.524484,0 h 5.094261 c 0.536585,0 0.968417,0.43183 0.968417,0.96842 v 4.39924 c 0,0.53658 -0.431832,0.96842 -0.968417,0.96842 h -5.094261 c -0.536586,0 -0.968418,-0.43184 -0.968418,-0.96842 v -4.39924 c 0,-0.53659 0.431832,-0.96842 0.968418,-0.96842 z m 9.524999,0 h 5.094261 c 0.536586,0 0.968413,0.43183 0.968413,0.96842 v 4.39924 c 0,0.53658 -0.431827,0.96842 -0.968413,0.96842 h -5.094261 c -0.536585,0 -0.968417,-0.43184 -0.968417,-0.96842 v -4.39924 c 0,-0.53659 0.431832,-0.96842 0.968417,-0.96842 z m 9.525014,0 h 5.09426 c 0.53658,0 0.96841,0.43183 0.96841,0.96842 v 4.39924 c 0,0.53658 -0.43183,0.96842 -0.96841,0.96842 h -5.09426 c -0.5366,0 -0.96842,-0.43184 -0.96842,-0.96842 v -4.39924 c 0,-0.53659 0.43182,-0.96842 0.96842,-0.96842 z m 9.525,0 h 5.09426 c 0.53658,0 0.96841,0.43183 0.96841,0.96842 v 4.39924 c 0,0.53658 -0.43183,0.96842 -0.96841,0.96842 h -5.09426 c -0.5366,0 -0.96842,-0.43184 -0.96842,-0.96842 v -4.39924 c 0,-0.53659 0.43182,-0.96842 0.96842,-0.96842 z m 9.525,0 h 5.09426 c 0.53658,0 0.96841,0.43183 0.96841,0.96842 v 4.39924 c 0,0.53658 -0.43183,0.96842 -0.96841,0.96842 h -5.09426 c -0.5366,0 -0.96842,-0.43184 -0.96842,-0.96842 v -4.39924 c 0,-0.53659 0.43182,-0.96842 0.96842,-0.96842 z m 9.52499,0 h 5.09427 c 0.53659,0 0.96841,0.43183 0.96841,0.96842 v 4.39924 c 0,0.53658 -0.43182,0.96842 -0.96841,0.96842 h -5.09427 c -0.53658,0 -0.96841,-0.43184 -0.96841,-0.96842 v -4.39924 c 0,-0.53659 0.43183,-0.96842 0.96841,-0.96842 z m 9.525,0 h 5.09375 c 0.53659,0 0.96893,0.43183 0.96893,0.96842 v 4.39924 c 0,0.53658 -0.43234,0.96842 -0.96893,0.96842 h -5.09375 c -0.53658,0 -0.96893,-0.43184 -0.96893,-0.96842 v -4.39924 c 0,-0.53659 0.43235,-0.96842 0.96893,-0.96842 z m 9.525,0 h 5.09375 c 0.53658,0 0.96893,0.43183 0.96893,0.96842 v 4.39924 c 0,0.53658 -0.43235,0.96842 -0.96893,0.96842 h -5.09375 c -0.53659,0 -0.96893,-0.43184 -0.96893,-0.96842 v -4.39924 c 0,-0.53659 0.43234,-0.96842 0.96893,-0.96842 z m 9.525,0 h 5.09375 c 0.53658,0 0.96893,0.43183 0.96893,0.96842 v 4.39924 c 0,0.53658 -0.43235,0.96842 -0.96893,0.96842 h -5.09375 c -0.53659,0 -0.96893,-0.43184 -0.96893,-0.96842 v -4.39924 c 0,-0.53659 0.43234,-0.96842 0.96893,-0.96842 z m 9.52449,0 h 5.09426 c 0.53658,0 0.96842,0.43183 0.96842,0.96842 v 4.39924 c 0,0.53658 -0.43184,0.96842 -0.96842,0.96842 h -5.09426 c -0.53659,0 -0.96842,-0.43184 -0.96842,-0.96842 v -4.39924 c 0,-0.53659 0.43183,-0.96842 0.96842,-0.96842 z m 9.525,0 h 5.09426 c 0.53659,0 0.96842,0.43183 0.96842,0.96842 v 4.39924 c 0,0.53658 -0.43183,0.96842 -0.96842,0.96842 h -5.09426 c -0.53658,0 -0.96842,-0.43184 -0.96842,-0.96842 v -4.39924 c 0,-0.53659 0.43184,-0.96842 0.96842,-0.96842 z m 9.525,0 h 5.09426 c 0.53659,0 0.96842,0.43183 0.96842,0.96842 v 4.39924 c 0,0.53658 -0.43183,0.96842 -0.96842,0.96842 h -5.09426 c -0.53658,0 -0.96842,-0.43184 -0.96842,-0.96842 v -4.39924 c 0,-0.53659 0.43184,-0.96842 0.96842,-0.96842 z m 9.525,0 h 5.09426 c 0.53658,0 0.96842,0.43183 0.96842,0.96842 v 4.39924 c 0,0.53658 -0.43184,0.96842 -0.96842,0.96842 h -5.09426 c -0.53658,0 -0.96842,-0.43184 -0.96842,-0.96842 v -4.39924 c 0,-0.53659 0.43184,-0.96842 0.96842,-0.96842 z m 9.525,0 h 5.09426 c 0.53658,0 0.96842,0.43183 0.96842,0.96842 v 4.39924 c 0,0.53658 -0.43184,0.96842 -0.96842,0.96842 h -5.09426 c -0.53659,0 -0.96842,-0.43184 -0.96842,-0.96842 v -4.39924 c 0,-0.53659 0.43183,-0.96842 0.96842,-0.96842 z m 9.525,0 h 5.09426 c 0.53658,0 0.96842,0.43183 0.96842,0.96842 v 4.39924 c 0,0.53658 -0.43184,0.96842 -0.96842,0.96842 h -5.09426 c -0.53659,0 -0.96842,-0.43184 -0.96842,-0.96842 v -4.39924 c 0,-0.53659 0.43183,-0.96842 0.96842,-0.96842 z M 48.402214,150.16895 H 168.32875 c 3.72635,0 6.72621,2.99987 6.72621,6.72624 v 63.78855 c 0,3.72636 -2.99986,6.72621 -6.72621,6.72621 H 48.402214 c -3.726355,0 -6.726206,-2.99985 -6.726206,-6.72621 v -63.78855 c 0,-3.72637 2.999851,-6.72624 6.726206,-6.72624 z m -49.6243616,79.13391 h 5.0942627 c 0.5365855,0 0.9684164,0.43183 0.9684164,0.96841 v 4.39922 c 0,0.53658 -0.4318309,0.96841 -0.9684164,0.96841 h -5.0942627 c -0.5365853,0 -0.9684163,-0.43183 -0.9684163,-0.96841 v -4.39922 c 0,-0.53658 0.431831,-0.96841 0.9684163,-0.96841 z m 9.5249999,0 h 5.0942637 c 0.536586,0 0.968416,0.43183 0.968416,0.96841 v 4.39922 c 0,0.53658 -0.43183,0.96841 -0.968416,0.96841 H 8.3028523 c -0.5365853,0 -0.9684163,-0.43183 -0.9684163,-0.96841 v -4.39922 c 0,-0.53658 0.431831,-0.96841 0.9684163,-0.96841 z m 9.5250007,0 h 5.094263 c 0.536585,0 0.968416,0.43183 0.968416,0.96841 v 4.39922 c 0,0.53658 -0.431831,0.96841 -0.968416,0.96841 h -5.094263 c -0.536586,0 -0.968416,-0.43183 -0.968416,-0.96841 v -4.39922 c 0,-0.53658 0.43183,-0.96841 0.968416,-0.96841 z m 9.525,0 h 5.094264 c 0.536583,0 0.968415,0.43183 0.968415,0.96841 v 4.39922 c 0,0.53658 -0.431832,0.96841 -0.968415,0.96841 h -5.094264 c -0.536585,0 -0.968416,-0.43183 -0.968416,-0.96841 v -4.39922 c 0,-0.53658 0.431831,-0.96841 0.968416,-0.96841 z m 9.525,0 h 5.094264 c 0.536583,0 0.968414,0.43183 0.968414,0.96841 v 4.39922 c 0,0.53658 -0.431831,0.96841 -0.968414,0.96841 h -5.094264 c -0.536585,0 -0.968417,-0.43183 -0.968417,-0.96841 v -4.39922 c 0,-0.53658 0.431832,-0.96841 0.968417,-0.96841 z m 9.525,0 h 5.094264 c 0.536583,0 0.968414,0.43183 0.968414,0.96841 v 4.39922 c 0,0.53658 -0.431831,0.96841 -0.968414,0.96841 h -5.094264 c -0.536586,0 -0.968417,-0.43183 -0.968417,-0.96841 v -4.39922 c 0,-0.53658 0.431831,-0.96841 0.968417,-0.96841 z m 9.525,0 h 5.093745 c 0.536585,0 0.968933,0.43183 0.968933,0.96841 v 4.39922 c 0,0.53658 -0.432348,0.96841 -0.968933,0.96841 h -5.093745 c -0.536586,0 -0.968933,-0.43183 -0.968933,-0.96841 v -4.39922 c 0,-0.53658 0.432347,-0.96841 0.968933,-0.96841 z m 9.525,0 h 5.093745 c 0.536585,0 0.968933,0.43183 0.968933,0.96841 v 4.39922 c 0,0.53658 -0.432348,0.96841 -0.968933,0.96841 h -5.093745 c -0.536586,0 -0.968934,-0.43183 -0.968934,-0.96841 v -4.39922 c 0,-0.53658 0.432348,-0.96841 0.968934,-0.96841 z m 9.525,0 h 5.093745 c 0.536585,0 0.968417,0.43183 0.968417,0.96841 v 4.39922 c 0,0.53658 -0.431832,0.96841 -0.968417,0.96841 h -5.093745 c -0.536586,0 -0.968934,-0.43183 -0.968934,-0.96841 v -4.39922 c 0,-0.53658 0.432348,-0.96841 0.968934,-0.96841 z m 9.524484,0 h 5.094261 c 0.536585,0 0.968417,0.43183 0.968417,0.96841 v 4.39922 c 0,0.53658 -0.431832,0.96841 -0.968417,0.96841 h -5.094261 c -0.536586,0 -0.968418,-0.43183 -0.968418,-0.96841 v -4.39922 c 0,-0.53658 0.431832,-0.96841 0.968418,-0.96841 z m 9.524999,0 h 5.094261 c 0.536586,0 0.968413,0.43183 0.968413,0.96841 v 4.39922 c 0,0.53658 -0.431827,0.96841 -0.968413,0.96841 h -5.094261 c -0.536585,0 -0.968417,-0.43183 -0.968417,-0.96841 v -4.39922 c 0,-0.53658 0.431832,-0.96841 0.968417,-0.96841 z m 9.525014,0 h 5.09426 c 0.53658,0 0.96841,0.43183 0.96841,0.96841 v 4.39922 c 0,0.53658 -0.43183,0.96841 -0.96841,0.96841 h -5.09426 c -0.5366,0 -0.96842,-0.43183 -0.96842,-0.96841 v -4.39922 c 0,-0.53658 0.43182,-0.96841 0.96842,-0.96841 z m 9.525,0 h 5.09426 c 0.53658,0 0.96841,0.43183 0.96841,0.96841 v 4.39922 c 0,0.53658 -0.43183,0.96841 -0.96841,0.96841 h -5.09426 c -0.5366,0 -0.96842,-0.43183 -0.96842,-0.96841 v -4.39922 c 0,-0.53658 0.43182,-0.96841 0.96842,-0.96841 z m 9.525,0 h 5.09426 c 0.53658,0 0.96841,0.43183 0.96841,0.96841 v 4.39922 c 0,0.53658 -0.43183,0.96841 -0.96841,0.96841 h -5.09426 c -0.5366,0 -0.96842,-0.43183 -0.96842,-0.96841 v -4.39922 c 0,-0.53658 0.43182,-0.96841 0.96842,-0.96841 z m 9.52499,0 h 5.09427 c 0.53659,0 0.96841,0.43183 0.96841,0.96841 v 4.39922 c 0,0.53658 -0.43182,0.96841 -0.96841,0.96841 h -5.09427 c -0.53658,0 -0.96841,-0.43183 -0.96841,-0.96841 v -4.39922 c 0,-0.53658 0.43183,-0.96841 0.96841,-0.96841 z m 9.525,0 h 5.09375 c 0.53659,0 0.96893,0.43183 0.96893,0.96841 v 4.39922 c 0,0.53658 -0.43234,0.96841 -0.96893,0.96841 h -5.09375 c -0.53658,0 -0.96893,-0.43183 -0.96893,-0.96841 v -4.39922 c 0,-0.53658 0.43235,-0.96841 0.96893,-0.96841 z m 9.525,0 h 5.09375 c 0.53658,0 0.96893,0.43183 0.96893,0.96841 v 4.39922 c 0,0.53658 -0.43235,0.96841 -0.96893,0.96841 h -5.09375 c -0.53659,0 -0.96893,-0.43183 -0.96893,-0.96841 v -4.39922 c 0,-0.53658 0.43234,-0.96841 0.96893,-0.96841 z m 9.525,0 h 5.09375 c 0.53658,0 0.96893,0.43183 0.96893,0.96841 v 4.39922 c 0,0.53658 -0.43235,0.96841 -0.96893,0.96841 h -5.09375 c -0.53659,0 -0.96893,-0.43183 -0.96893,-0.96841 v -4.39922 c 0,-0.53658 0.43234,-0.96841 0.96893,-0.96841 z m 9.52449,0 h 5.09426 c 0.53658,0 0.96842,0.43183 0.96842,0.96841 v 4.39922 c 0,0.53658 -0.43184,0.96841 -0.96842,0.96841 h -5.09426 c -0.53659,0 -0.96842,-0.43183 -0.96842,-0.96841 v -4.39922 c 0,-0.53658 0.43183,-0.96841 0.96842,-0.96841 z m 9.525,0 h 5.09426 c 0.53659,0 0.96842,0.43183 0.96842,0.96841 v 4.39922 c 0,0.53658 -0.43183,0.96841 -0.96842,0.96841 h -5.09426 c -0.53658,0 -0.96842,-0.43183 -0.96842,-0.96841 v -4.39922 c 0,-0.53658 0.43184,-0.96841 0.96842,-0.96841 z m 9.525,0 h 5.09426 c 0.53659,0 0.96842,0.43183 0.96842,0.96841 v 4.39922 c 0,0.53658 -0.43183,0.96841 -0.96842,0.96841 h -5.09426 c -0.53658,0 -0.96842,-0.43183 -0.96842,-0.96841 v -4.39922 c 0,-0.53658 0.43184,-0.96841 0.96842,-0.96841 z m 9.525,0 h 5.09426 c 0.53658,0 0.96842,0.43183 0.96842,0.96841 v 4.39922 c 0,0.53658 -0.43184,0.96841 -0.96842,0.96841 h -5.09426 c -0.53658,0 -0.96842,-0.43183 -0.96842,-0.96841 v -4.39922 c 0,-0.53658 0.43184,-0.96841 0.96842,-0.96841 z m 9.525,0 h 5.09426 c 0.53658,0 0.96842,0.43183 0.96842,0.96841 v 4.39922 c 0,0.53658 -0.43184,0.96841 -0.96842,0.96841 h -5.09426 c -0.53659,0 -0.96842,-0.43183 -0.96842,-0.96841 v -4.39922 c 0,-0.53658 0.43183,-0.96841 0.96842,-0.96841 z m 9.525,0 h 5.09426 c 0.53658,0 0.96842,0.43183 0.96842,0.96841 v 4.39922 c 0,0.53658 -0.43184,0.96841 -0.96842,0.96841 h -5.09426 c -0.53659,0 -0.96842,-0.43183 -0.96842,-0.96841 v -4.39922 c 0,-0.53658 0.43183,-0.96841 0.96842,-0.96841 z"
       id="rect6020"
       inkscape:connector-curvature="0" />
  </g>
  <g
     inkscape:groupmode="layer"
     id="layer3"
     inkscape:label="slides"
     style="display:inline"
     transform="translate(0,-85.333317)">
    <rect
       id="rect3713"
       width="133.37909"
       height="77.240891"
       x="41.676109"
       y="150.16833"
       style="opacity:1;fill:#b4b4b4;fill-opacity:0.78431374;stroke:none;stroke-width:0.44126326"
       ry="6.7262712" />
    <rect
       id="rect3713-3"
       width="132.71092"
       height="77.240891"
       x="178.72523"
       y="150.16833"
       style="opacity:1;fill:#b4b4b4;fill-opacity:0.78431374;stroke:none;stroke-width:0.44015661"
       ry="6.4590178" />
    <rect
       id="rect3713-6"
       width="132.71092"
       height="77.240891"
       x="-94.704865"
       y="150.16833"
       style="opacity:1;fill:#b4b4b4;fill-opacity:0.78571427;stroke:none;stroke-width:0.44015661"
       ry="6.726275" />
  </g>
  <g
     inkscape:groupmode="layer"
     id="layer4"
     inkscape:label="waveform"
     style="display:inline"
     transform="translate(0,-85.333317)">
    <path
       style="fill:none;stroke:#ebf400;stroke-width:0.26458332px;stroke-linecap:butt;stroke-linejoin:miter;stroke-opacity:1"
       d="M 48.060289,188.26228 H 139.08157"
       id="path1069"
       inkscape:connector-curvature="0" />
    <path
       style="fill:none;stroke:#d40000;stroke-width:1.32291663;stroke-linecap:butt;stroke-linejoin:miter;stroke-miterlimit:4;stroke-dasharray:none;stroke-opacity:1"
       d="m 48.060288,188.26228 c 2.021755,-8.65222 3.044724,-26.31101 5.314526,-26.3833 2.898368,0.0124 5.646912,53.19291 9.091969,53.02149 3.125333,0.0296 5.381779,-46.25858 8.82327,-46.28967 3.348088,0.0785 6.322683,40.19491 9.370271,40.0002 2.736682,0.13489 5.106246,-34.12141 8.290309,-34.24049 3.20623,0.0585 5.335802,28.98019 8.286708,28.89039 2.583724,0.0772 3.874559,-24.53725 6.666059,-24.6604 2.51149,-0.0707 5.36554,19.13059 7.5455,19.09177 2.31836,0.0571 2.46892,-15.42464 4.80992,-15.49184 2.3476,-0.0125 3.22894,11.34761 5.26719,11.41222 2.1442,-0.26645 2.05132,-7.2518 5.27401,-7.21605 1.28616,0.006 1.54037,0.73371 5.55922,1.43876 4.01885,0.70505 36.11661,0.65442 36.11661,0.65442"
       id="path12289"
       inkscape:connector-curvature="0"
       sodipodi:nodetypes="cccccccccccczc" />
  </g>
  <g
     inkscape:groupmode="layer"
     id="layer5"
     inkscape:label="info"
     style="display:inline"
     transform="translate(0,-85.333317)">
    <text
       xml:space="preserve"
       style="font-style:normal;font-weight:bold;font-size:10.58333302px;line-height:1.25;font-family:sans-serif;text-align:center;letter-spacing:0px;word-spacing:0px;text-anchor:middle;fill:#ecf500;fill-opacity:1;stroke:none;stroke-width:0.26458332;stroke-opacity:1;-inkscape-font-specification:'sans-serif Bold';font-stretch:normal;font-variant:normal;"
       x="57.01466"
       y="155.75375"
       id="text12294"><tspan
         sodipodi:role="line"
         id="tspan12292"
         x="57.01466"
         y="155.75375"
         style="font-size:4.23333311px;text-align:center;text-anchor:middle;fill:#ecf500;fill-opacity:1;stroke:none;stroke-width:0.26458332;stroke-opacity:1;-inkscape-font-specification:'sans-serif Bold';font-family:sans-serif;font-weight:bold;font-style:normal;font-stretch:normal;font-variant:normal;">00:00.000</tspan></text>
    <text
       id="text12316"
       y="155.75375"
       x="158.08513"
       style="font-style:normal;font-weight:bold;font-size:10.58333302px;line-height:1.25;font-family:sans-serif;text-align:center;letter-spacing:0px;word-spacing:0px;text-anchor:middle;fill:#ecf500;fill-opacity:1;stroke:none;stroke-width:0.26458332;stroke-opacity:1;-inkscape-font-specification:'sans-serif Bold';font-stretch:normal;font-variant:normal;"
       xml:space="preserve"><tspan
         style="font-size:4.23333311px;text-align:center;text-anchor:middle;fill:#ecf500;fill-opacity:1;stroke:none;stroke-width:0.26458332;stroke-opacity:1;-inkscape-font-specification:'sans-serif Bold';font-family:sans-serif;font-weight:bold;font-style:normal;font-stretch:normal;font-variant:normal;"
         y="155.75375"
         x="158.08513"
         id="tspan12314"
         sodipodi:role="line">02:46.913</tspan></text>
    <text
       xml:space="preserve"
       style="font-style:normal;font-weight:bold;font-size:10.58333302px;line-height:1.25;font-family:sans-serif;text-align:center;letter-spacing:0px;word-spacing:0px;text-anchor:middle;fill:#ecf500;fill-opacity:1;stroke:none;stroke-width:0.26458332;stroke-opacity:1;-inkscape-font-specification:'sans-serif Bold';font-stretch:normal;font-variant:normal;"
       x="107.54369"
       y="155.75375"
       id="text12320"><tspan
         sodipodi:role="line"
         id="tspan12318"
         x="107.54369"
         y="155.75375"
         style="font-size:4.23333311px;text-align:center;text-anchor:middle;fill:#ecf500;fill-opacity:1;stroke:none;stroke-width:0.26458332;stroke-opacity:1;-inkscape-font-specification:'sans-serif Bold';font-family:sans-serif;font-weight:bold;font-style:normal;font-stretch:normal;font-variant:normal;">01:23.456.789</tspan></text>
    <path
       style="fill:none;fill-opacity:1;stroke:#f4f400;stroke-width:1.32291666;stroke-linecap:butt;stroke-linejoin:miter;stroke-miterlimit:4;stroke-dasharray:none;stroke-opacity:1"
       d="m 107.82715,158.9617 v 55.85952"
       id="path12322"
       inkscape:connector-curvature="0" />
    <path
       style="fill:none;fill-opacity:1;stroke:#0042c8;stroke-width:1.32291666;stroke-linecap:butt;stroke-linejoin:miter;stroke-miterlimit:4;stroke-dasharray:none;stroke-opacity:1"
       d="m 139.55283,158.80126 v 64.09888"
       id="path12322-9"
       inkscape:connector-curvature="0" />
    <text
       id="text12316-4"
       y="222.20705"
       x="128.96637"
       style="font-style:normal;font-weight:bold;font-size:10.58333302px;line-height:1.25;font-family:sans-serif;text-align:center;letter-spacing:0px;word-spacing:0px;text-anchor:middle;fill:#0043c8;fill-opacity:1;stroke:none;stroke-width:0.26458332;-inkscape-font-specification:'sans-serif Bold';font-stretch:normal;font-variant:normal;"
       xml:space="preserve"><tspan
         style="font-size:4.23333311px;text-align:center;text-anchor:middle;fill:#0043c8;fill-opacity:1;stroke:none;stroke-width:0.26458332;stroke-opacity:1;-inkscape-font-specification:'sans-serif Bold';font-family:sans-serif;font-weight:bold;font-style:normal;font-stretch:normal;font-variant:normal;"
         y="222.20705"
         x="128.96637"
         id="tspan12314-9"
         sodipodi:role="line">Part 1</tspan></text>
    <text
       xml:space="preserve"
       style="font-style:normal;font-weight:bold;font-size:10.58333302px;line-height:1.25;font-family:sans-serif;text-align:center;letter-spacing:0px;word-spacing:0px;text-anchor:middle;fill:#0042c8;fill-opacity:1;stroke:none;stroke-width:0.26458332;-inkscape-font-specification:'sans-serif Bold';font-stretch:normal;font-variant:normal;"
       x="150.13275"
       y="222.23495"
       id="text12359"><tspan
         sodipodi:role="line"
         id="tspan12357"
         x="150.13275"
         y="222.23495"
         style="font-size:4.23333311px;text-align:center;text-anchor:middle;fill:#0042c8;fill-opacity:1;stroke:none;stroke-width:0.26458332;stroke-opacity:1;-inkscape-font-specification:'sans-serif Bold';font-family:sans-serif;font-weight:bold;font-style:normal;font-stretch:normal;font-variant:normal;">Part 2</tspan></text>
  </g>
</svg>
