<?xml version="1.0" encoding="UTF-8" standalone="no"?>
<!-- Created with Inkscape (http://www.inkscape.org/) -->

<svg
   xmlns:osb="http://www.openswatchbook.org/uri/2009/osb"
   xmlns:dc="http://purl.org/dc/elements/1.1/"
   xmlns:cc="http://creativecommons.org/ns#"
   xmlns:rdf="http://www.w3.org/1999/02/22-rdf-syntax-ns#"
   xmlns:svg="http://www.w3.org/2000/svg"
   xmlns="http://www.w3.org/2000/svg"
   xmlns:sodipodi="http://sodipodi.sourceforge.net/DTD/sodipodi-0.dtd"
   xmlns:inkscape="http://www.inkscape.org/namespaces/inkscape"
   inkscape:export-ydpi="12"
   inkscape:export-xdpi="12"
   inkscape:export-filename="/home/francois/Projects/media-toc/assets/icons/hicolor/64x64/apps/org.fengalin.media-toc-symbolic.png"
   width="512"
   height="512"
   viewBox="0 0 135.46666 135.46668"
   version="1.1"
   id="svg8"
   inkscape:version="0.92.3 (2405546, 2018-03-11)"
   sodipodi:docname="media-toc-symbolic.svg">
  <defs
     id="defs2">
    <marker
       inkscape:isstock="true"
       style="overflow:visible"
       id="marker1445"
       refX="0.0"
       refY="0.0"
       orient="auto"
       inkscape:stockid="Arrow2Lstart">
      <path
         transform="scale(1.1) translate(1,0)"
         d="M 8.7185878,4.0337352 L -2.2072895,0.016013256 L 8.7185884,-4.0017078 C 6.9730900,-1.6296469 6.9831476,1.6157441 8.7185878,4.0337352 z "
         style="fill-rule:evenodd;stroke-width:0.625;stroke-linejoin:round;stroke:#000000;stroke-opacity:1;fill:#000000;fill-opacity:1"
         id="path1443" />
    </marker>
    <marker
       inkscape:stockid="Arrow2Lstart"
       orient="auto"
       refY="0.0"
       refX="0.0"
       id="Arrow2Lstart"
       style="overflow:visible"
       inkscape:isstock="true"
       inkscape:collect="always">
      <path
         id="path865"
         style="fill-rule:evenodd;stroke-width:0.625;stroke-linejoin:round;stroke:#000000;stroke-opacity:1;fill:#000000;fill-opacity:1"
         d="M 8.7185878,4.0337352 L -2.2072895,0.016013256 L 8.7185884,-4.0017078 C 6.9730900,-1.6296469 6.9831476,1.6157441 8.7185878,4.0337352 z "
         transform="scale(1.1) translate(1,0)" />
    </marker>
    <linearGradient
       id="linearGradient5978"
       osb:paint="solid">
      <stop
         style="stop-color:#000000;stop-opacity:1;"
         offset="0"
         id="stop5976" />
    </linearGradient>
  </defs>
  <sodipodi:namedview
     showguides="false"
     units="px"
     inkscape:pagecheckerboard="true"
     id="base"
     pagecolor="#ffffff"
     bordercolor="#666666"
     borderopacity="1.0"
     inkscape:pageopacity="0.0"
     inkscape:pageshadow="2"
     inkscape:zoom="1.4"
     inkscape:cx="159.00831"
     inkscape:cy="251.9891"
     inkscape:document-units="px"
     inkscape:current-layer="layer1"
     showgrid="false"
     inkscape:window-width="1920"
     inkscape:window-height="1016"
     inkscape:window-x="0"
     inkscape:window-y="27"
     inkscape:window-maximized="1" />
  <metadata
     id="metadata5">
    <rdf:RDF>
      <cc:Work
         rdf:about="">
        <dc:format>image/svg+xml</dc:format>
        <dc:type
           rdf:resource="http://purl.org/dc/dcmitype/StillImage" />
        <dc:title />
        <cc:license
           rdf:resource="http://creativecommons.org/licenses/by-sa/4.0/" />
      </cc:Work>
      <cc:License
         rdf:about="http://creativecommons.org/licenses/by-sa/4.0/">
        <cc:permits
           rdf:resource="http://creativecommons.org/ns#Reproduction" />
        <cc:permits
           rdf:resource="http://creativecommons.org/ns#Distribution" />
        <cc:requires
           rdf:resource="http://creativecommons.org/ns#Notice" />
        <cc:requires
           rdf:resource="http://creativecommons.org/ns#Attribution" />
        <cc:permits
           rdf:resource="http://creativecommons.org/ns#DerivativeWorks" />
        <cc:requires
           rdf:resource="http://creativecommons.org/ns#ShareAlike" />
      </cc:License>
    </rdf:RDF>
  </metadata>
  <g
     inkscape:label="background"
     inkscape:groupmode="layer"
     id="layer1"
     style="display:inline"
     transform="translate(0,-161.53332)">
    <path
       style="display:inline;opacity:1;fill:#000000;fill-opacity:1;stroke:none;stroke-width:2.13613343"
       d="M -33.335938 0 L -33.335938 56 L 2.2851562 56 C 10.990884 56 18 63.009116 18 71.714844 L 18 440.28516 C 18 448.99088 10.990884 456 2.2851562 456 L -33.335938 456 L -33.335938 512 L 546.49219 512 L 546.49219 456 L 510.71484 456 C 502.00913 456 495 448.99087 495 440.28516 L 495 71.714844 C 495 63.009129 502.00913 56 510.71484 56 L 546.49219 56 L 546.49219 0 L -33.335938 0 z M -7.4746094 13.529297 L 5.1894531 13.529297 C 9.4373294 13.529297 12.857422 16.949389 12.857422 21.197266 L 12.857422 33.863281 C 12.857422 38.111158 9.4373294 41.529297 5.1894531 41.529297 L -7.4746094 41.529297 C -11.722486 41.529297 -15.142578 38.111158 -15.142578 33.863281 L -15.142578 21.197266 C -15.142578 16.949389 -11.722486 13.529297 -7.4746094 13.529297 z M 39.236328 13.529297 L 51.900391 13.529297 C 56.148267 13.529297 59.568359 16.949389 59.568359 21.197266 L 59.568359 33.863281 C 59.568359 38.111158 56.148267 41.529297 51.900391 41.529297 L 39.236328 41.529297 C 34.988452 41.529297 31.568359 38.111158 31.568359 33.863281 L 31.568359 21.197266 C 31.568359 16.949389 34.988452 13.529297 39.236328 13.529297 z M 85.947266 13.529297 L 98.611328 13.529297 C 102.8592 13.529297 106.2793 16.949389 106.2793 21.197266 L 106.2793 33.863281 C 106.2793 38.111158 102.8592 41.529297 98.611328 41.529297 L 85.947266 41.529297 C 81.699389 41.529297 78.279297 38.111158 78.279297 33.863281 L 78.279297 21.197266 C 78.279297 16.949389 81.699389 13.529297 85.947266 13.529297 z M 132.6582 13.529297 L 145.32227 13.529297 C 149.57014 13.529297 152.99023 16.949389 152.99023 21.197266 L 152.99023 33.863281 C 152.99023 38.111158 149.57014 41.529297 145.32227 41.529297 L 132.6582 41.529297 C 128.41033 41.529297 124.99023 38.111158 124.99023 33.863281 L 124.99023 21.197266 C 124.99023 16.949389 128.41033 13.529297 132.6582 13.529297 z M 179.36914 13.529297 L 192.03516 13.529297 C 196.28303 13.529297 199.70117 16.949389 199.70117 21.197266 L 199.70117 33.863281 C 199.70117 38.111158 196.28303 41.529297 192.03516 41.529297 L 179.36914 41.529297 C 175.12126 41.529297 171.70117 38.111158 171.70117 33.863281 L 171.70117 21.197266 C 171.70117 16.949389 175.12126 13.529297 179.36914 13.529297 z M 226.08008 13.529297 L 238.74609 13.529297 C 242.99397 13.529297 246.41211 16.949389 246.41211 21.197266 L 246.41211 33.863281 C 246.41211 38.111158 242.99397 41.529297 238.74609 41.529297 L 226.08008 41.529297 C 221.8322 41.529297 218.41211 38.111158 218.41211 33.863281 L 218.41211 21.197266 C 218.41211 16.949389 221.8322 13.529297 226.08008 13.529297 z M 272.79102 13.529297 L 285.45703 13.529297 C 289.70491 13.529297 293.12305 16.949389 293.12305 21.197266 L 293.12305 33.863281 C 293.12305 38.111158 289.70491 41.529297 285.45703 41.529297 L 272.79102 41.529297 C 268.54314 41.529297 265.12305 38.111158 265.12305 33.863281 L 265.12305 21.197266 C 265.12305 16.949389 268.54314 13.529297 272.79102 13.529297 z M 319.50195 13.529297 L 332.16797 13.529297 C 336.41585 13.529297 339.83594 16.949389 339.83594 21.197266 L 339.83594 33.863281 C 339.83594 38.111158 336.41585 41.529297 332.16797 41.529297 L 319.50195 41.529297 C 315.25408 41.529297 311.83594 38.111158 311.83594 33.863281 L 311.83594 21.197266 C 311.83594 16.949389 315.25408 13.529297 319.50195 13.529297 z M 366.21289 13.529297 L 378.87891 13.529297 C 383.12678 13.529297 386.54688 16.949389 386.54688 21.197266 L 386.54688 33.863281 C 386.54688 38.111158 383.12678 41.529297 378.87891 41.529297 L 366.21289 41.529297 C 361.96501 41.529297 358.54688 38.111158 358.54688 33.863281 L 358.54688 21.197266 C 358.54688 16.949389 361.96501 13.529297 366.21289 13.529297 z M 412.92578 13.529297 L 425.58984 13.529297 C 429.83772 13.529297 433.25781 16.949389 433.25781 21.197266 L 433.25781 33.863281 C 433.25781 38.111158 429.83772 41.529297 425.58984 41.529297 L 412.92578 41.529297 C 408.6779 41.529297 405.25781 38.111158 405.25781 33.863281 L 405.25781 21.197266 C 405.25781 16.949389 408.6779 13.529297 412.92578 13.529297 z M 459.63672 13.529297 L 472.30078 13.529297 C 476.54866 13.529297 479.96875 16.949389 479.96875 21.197266 L 479.96875 33.863281 C 479.96875 38.111158 476.54866 41.529297 472.30078 41.529297 L 459.63672 41.529297 C 455.38884 41.529297 451.96875 38.111158 451.96875 33.863281 L 451.96875 21.197266 C 451.96875 16.949389 455.38884 13.529297 459.63672 13.529297 z M 506.34766 13.529297 L 519.01172 13.529297 C 523.2596 13.529297 526.67969 16.949389 526.67969 21.197266 L 526.67969 33.863281 C 526.67969 38.111158 523.2596 41.529297 519.01172 41.529297 L 506.34766 41.529297 C 502.09978 41.529297 498.67969 38.111158 498.67969 33.863281 L 498.67969 21.197266 C 498.67969 16.949389 502.09978 13.529297 506.34766 13.529297 z M 52.714844 56 L 459.28516 56 C 467.99087 56 475 63.009129 475 71.714844 L 475 440.28516 C 475 448.99087 467.99087 456 459.28516 456 L 52.714844 456 C 44.009129 456 37 448.99087 37 440.28516 L 37 71.714844 C 37 63.009129 44.009129 56 52.714844 56 z M -7.4746094 470 L 5.1894531 470 C 9.4373294 470 12.857422 473.42009 12.857422 477.66797 L 12.857422 490.33203 C 12.857422 494.57991 9.4373294 498 5.1894531 498 L -7.4746094 498 C -11.722486 498 -15.142578 494.57991 -15.142578 490.33203 L -15.142578 477.66797 C -15.142578 473.42009 -11.722486 470 -7.4746094 470 z M 39.236328 470 L 51.900391 470 C 56.148267 470 59.568359 473.42009 59.568359 477.66797 L 59.568359 490.33203 C 59.568359 494.57991 56.148267 498 51.900391 498 L 39.236328 498 C 34.988452 498 31.568359 494.57991 31.568359 490.33203 L 31.568359 477.66797 C 31.568359 473.42009 34.988452 470 39.236328 470 z M 85.947266 470 L 98.611328 470 C 102.8592 470 106.2793 473.42009 106.2793 477.66797 L 106.2793 490.33203 C 106.2793 494.57991 102.8592 498 98.611328 498 L 85.947266 498 C 81.699389 498 78.279297 494.57991 78.279297 490.33203 L 78.279297 477.66797 C 78.279297 473.42009 81.699389 470 85.947266 470 z M 132.6582 470 L 145.32227 470 C 149.57014 470 152.99023 473.42009 152.99023 477.66797 L 152.99023 490.33203 C 152.99023 494.57991 149.57014 498 145.32227 498 L 132.6582 498 C 128.41033 498 124.99023 494.57991 124.99023 490.33203 L 124.99023 477.66797 C 124.99023 473.42009 128.41033 470 132.6582 470 z M 179.36914 470 L 192.03516 470 C 196.28303 470 199.70117 473.42009 199.70117 477.66797 L 199.70117 490.33203 C 199.70117 494.57991 196.28303 498 192.03516 498 L 179.36914 498 C 175.12126 498 171.70117 494.57991 171.70117 490.33203 L 171.70117 477.66797 C 171.70117 473.42009 175.12126 470 179.36914 470 z M 226.08008 470 L 238.74609 470 C 242.99397 470 246.41211 473.42009 246.41211 477.66797 L 246.41211 490.33203 C 246.41211 494.57991 242.99397 498 238.74609 498 L 226.08008 498 C 221.8322 498 218.41211 494.57991 218.41211 490.33203 L 218.41211 477.66797 C 218.41211 473.42009 221.8322 470 226.08008 470 z M 272.79102 470 L 285.45703 470 C 289.70491 470 293.12305 473.42009 293.12305 477.66797 L 293.12305 490.33203 C 293.12305 494.57991 289.70491 498 285.45703 498 L 272.79102 498 C 268.54314 498 265.12305 494.57991 265.12305 490.33203 L 265.12305 477.66797 C 265.12305 473.42009 268.54314 470 272.79102 470 z M 319.50195 470 L 332.16797 470 C 336.41585 470 339.83594 473.42009 339.83594 477.66797 L 339.83594 490.33203 C 339.83594 494.57991 336.41585 498 332.16797 498 L 319.50195 498 C 315.25408 498 311.83594 494.57991 311.83594 490.33203 L 311.83594 477.66797 C 311.83594 473.42009 315.25408 470 319.50195 470 z M 366.21289 470 L 378.87891 470 C 383.12678 470 386.54688 473.42009 386.54688 477.66797 L 386.54688 490.33203 C 386.54688 494.57991 383.12678 498 378.87891 498 L 366.21289 498 C 361.96501 498 358.54688 494.57991 358.54688 490.33203 L 358.54688 477.66797 C 358.54688 473.42009 361.96501 470 366.21289 470 z M 412.92578 470 L 425.58984 470 C 429.83772 470 433.25781 473.42009 433.25781 477.66797 L 433.25781 490.33203 C 433.25781 494.57991 429.83772 498 425.58984 498 L 412.92578 498 C 408.6779 498 405.25781 494.57991 405.25781 490.33203 L 405.25781 477.66797 C 405.25781 473.42009 408.6779 470 412.92578 470 z M 459.63672 470 L 472.30078 470 C 476.54866 470 479.96875 473.42009 479.96875 477.66797 L 479.96875 490.33203 C 479.96875 494.57991 476.54866 498 472.30078 498 L 459.63672 498 C 455.38884 498 451.96875 494.57991 451.96875 490.33203 L 451.96875 477.66797 C 451.96875 473.42009 455.38884 470 459.63672 470 z M 506.34766 470 L 519.01172 470 C 523.2596 470 526.67969 473.42009 526.67969 477.66797 L 526.67969 490.33203 C 526.67969 494.57991 523.2596 498 519.01172 498 L 506.34766 498 C 502.09978 498 498.67969 494.57991 498.67969 490.33203 L 498.67969 477.66797 C 498.67969 473.42009 502.09978 470 506.34766 470 z "
       transform="matrix(0.26458334,0,0,0.26458334,0,161.53332)"
       id="rect840" />
    <path
       style="display:inline;fill:none;stroke:#000000;stroke-width:1.0583334;stroke-linecap:butt;stroke-linejoin:miter;stroke-miterlimit:4;stroke-dasharray:none;stroke-opacity:1"
       d="M 13.577535,224.31502 H 105.12265"
       id="path1069"
       inkscape:connector-curvature="0" />
    <path
       style="display:inline;fill:none;stroke:#000000;stroke-width:1.85208338;stroke-linecap:butt;stroke-linejoin:miter;stroke-miterlimit:4;stroke-dasharray:none;stroke-opacity:1"
       d="m 13.577535,224.31502 c 2.226293,-12.34591 1.880769,-39.10559 4.65545,-39.14272 4.237941,0.0117 4.065476,79.00114 7.964436,78.66361 3.31741,0.18956 4.443233,-68.75198 8.43143,-68.67617 3.980716,0.18663 4.19724,59.29684 8.208224,59.34502 3.792425,0.20268 3.461022,-50.91103 7.145129,-50.99807 3.758445,-0.21155 3.26849,44.14134 6.907852,44.05186 3.369559,-0.0955 2.592765,-38.42569 6.750483,-38.43778 3.429793,-0.12635 4.493883,29.53903 8.143169,29.44328 3.041565,-0.25083 1.171889,-23.58965 4.758575,-23.96873 3.725108,0.18696 2.231223,19.09369 5.699101,18.78476 2.987623,0.001 3.244468,-13.6617 6.490845,-13.83751 1.480987,-0.0168 1.860012,0.8533 4.578663,3.16883 2.718651,2.31553 25.748988,1.94114 25.748988,1.94114"
       id="path12289"
       inkscape:connector-curvature="0"
       sodipodi:nodetypes="cccccccccccczc" />
    <path
       style="display:inline;fill:none;fill-opacity:1;stroke:#000000;stroke-width:1.32291675;stroke-linecap:butt;stroke-linejoin:miter;stroke-miterlimit:4;stroke-dasharray:none;stroke-opacity:1"
       d="m 67.587921,185.28182 v 76.78032"
       id="path12322"
       inkscape:connector-curvature="0" />
    <path
       style="display:inline;fill:none;fill-opacity:1;stroke:#000000;stroke-width:1.34542668;stroke-linecap:butt;stroke-linejoin:miter;stroke-miterlimit:4;stroke-dasharray:none;stroke-opacity:1"
       d="m 99.417482,185.28182 v 91.12933"
       id="path12322-9"
       inkscape:connector-curvature="0" />
    <path
       inkscape:connector-curvature="0"
       id="path845"
       d="M 96.429555,271.13305 14.001854,270.79214"
       style="display:inline;fill:none;fill-opacity:1;stroke:#000000;stroke-width:1.34540629;stroke-linecap:butt;stroke-linejoin:miter;stroke-miterlimit:4;stroke-dasharray:none;stroke-opacity:1;marker-start:url(#Arrow2Lstart)"
       sodipodi:nodetypes="cc" />
    <path
       sodipodi:nodetypes="cc"
       style="display:inline;fill:none;fill-opacity:1;stroke:#000000;stroke-width:1.34540629;stroke-linecap:butt;stroke-linejoin:miter;stroke-miterlimit:4;stroke-dasharray:none;stroke-opacity:1;marker-start:url(#marker1445)"
       d="m 102.38674,271.08565 18.81778,-0.34091"
       id="path1441"
       inkscape:connector-curvature="0" />
  </g>
</svg>
